<?xml version="1.0" encoding="utf-8"?>
<!-- Generator: Adobe Illustrator 28.1.0, SVG Export Plug-In . SVG Version: 6.00 Build 0)  -->
<svg version="1.1" id="Layer_1" xmlns="http://www.w3.org/2000/svg" xmlns:xlink="http://www.w3.org/1999/xlink" x="0px" y="0px"
	 viewBox="0 0 1080 1080" style="enable-background:new 0 0 1080 1080;" xml:space="preserve">
<style type="text/css">
	.st0{fill:#FFB600;}
	.st1{fill:#150B70;}
	.st2{fill:#06081A;}
</style>
<g>
	<g>
		<g>
			<path class="st0" d="M615.3,482.34v47.73c0,13.62,11.04,24.66,24.66,24.66h107.16c3.83,0,6.72,3.6,5.77,7.32
				c-10.96,42.85-32.04,76.53-63.3,101.05c-33.02,25.94-75.43,38.89-127.22,38.89c-42.07,0-78.98-8.52-110.68-25.6
				c-31.73-17.08-56.49-41.46-74.29-73.19c-17.8-31.69-26.69-68.91-26.69-111.59c0-41.46,8.75-78.08,26.2-109.77
				c17.49-31.69,41.76-56.11,72.85-73.19c31.05-17.04,66.64-25.6,106.78-25.6c36.27,0,68,7,95.19,21.01
				c26.2,13.54,46.99,33.02,62.36,58.42c1.07,1.77,2.97,2.88,5.05,2.88h144.63c4.15,0,6.97-4.14,5.54-8.04
				c-21.87-59.56-59.78-106.1-113.68-139.67c-56.34-35.06-122.68-52.63-199.09-52.63c-2.99,0-5.98,0.03-8.95,0.09
				c-4.37,0.09-7.19,4.64-5.25,8.56v0c1.43,2.9,0.28,6.41-2.59,7.89l-1.42,0.73c-62.21,32.34-100.72,97.46-101.14,98.11l-0.54,0.92
				c-1.17,2-3.41,3.14-5.71,2.9l-1.06-0.11c-85.31-8.78-138.17,20.71-138.7,21.01l-1.55,0.88c-2.96,1.68-6.73,0.53-8.24-2.53
				l-0.79-1.59c-1.99-4.03-7.52-4.44-10.16-0.81c-5.08,7.01-9.88,14.27-14.44,21.77c-30.1,49.72-45.13,105.94-45.13,168.76
				c0,62.82,15.03,118.89,45.13,168.31c30.1,49.38,71.53,87.96,124.31,115.71c52.74,27.75,111.81,41.61,177.2,41.61
				c58.27,0,110.87-11.43,157.78-34.3c46.95-22.87,85.31-53.2,115.07-91.03c29.62-37.61,49-78.56,58.14-122.84
				c0.09-0.42,0.13-0.85,0.13-1.27V462.78c0-3.27-2.65-5.93-5.93-5.93H640.8C626.72,456.85,615.3,468.26,615.3,482.34z"/>
		</g>
		<g>
			<path class="st1" d="M638.28,580.04l-15.06-6.8c-18.93-7.62-39.14-12.09-59.97-13.02V425.58c20.9-0.97,41.11-5.47,60.07-13.1
				l14.96-6.91c13.38-6.87,25.9-15.53,37.39-25.76l11.31-11.31l-0.21-0.68c-1.11-1.18-2.25-2.36-3.4-3.51
				c-3.29-3.29-6.69-6.44-10.16-9.45c-32.85-28.3-74.31-43.72-118.11-43.72c-48.41,0-94.03,18.89-128.23,53.17
				c-34.21,34.31-53.17,79.82-53.17,128.27c0,48.41,18.89,94.03,53.17,128.27c34.28,34.21,79.82,53.17,128.23,53.17
				c43.26,0,84.26-15.06,116.89-42.69c3.94-3.33,7.73-6.8,11.38-10.48c1.22-1.25,2.43-2.47,3.61-3.76l-11.45-11.45
				C664.12,595.53,651.59,586.95,638.28,580.04z M663.97,368.47c-9.48,8.37-19.86,15.49-30.81,21.4
				c-2.83-7.84-6.01-15.24-9.55-22.22c-7.05-13.92-15.03-25.3-23.87-34.06C623.83,340.35,645.69,352.41,663.97,368.47z
				 M563.25,329.97c16.96,3.79,32.95,19.39,45.83,44.87c3.47,6.91,6.58,14.24,9.34,22c-17.39,7.19-35.99,11.41-55.17,12.38V329.97z
				 M546.9,484.44h-70.2c0.57-25.62,4.08-50.13,10.13-72.02c18.96,7.69,39.25,12.13,60.07,13.02V484.44z M547.04,329.97v79.25
				c-19.18-0.97-37.85-5.19-55.17-12.38c2.76-7.76,5.83-15.1,9.34-22C514.09,349.37,530.08,333.77,547.04,329.97z M510.51,333.59
				c-8.8,8.77-16.78,20.22-23.83,34.06c-3.47,6.98-6.66,14.38-9.55,22.22c-10.95-5.9-21.25-13.02-30.81-21.4
				C464.61,352.41,486.47,340.35,510.51,333.59z M434.62,379.82c11.49,10.23,24.01,18.82,37.39,25.76
				c-6.87,24.01-10.88,50.88-11.49,78.86h-70.34C392.19,444.08,408.72,407.51,434.62,379.82z M390.18,500.75h70.34
				c0.68,28.19,4.69,55.24,11.63,79.29c-13.31,6.91-25.83,15.42-37.25,25.62C408.79,577.89,392.19,541.25,390.18,500.75z
				 M446.61,617c9.48-8.3,19.79-15.42,30.66-21.25c2.83,7.62,5.94,14.96,9.41,21.75c7.05,13.92,15.03,25.33,23.83,34.17
				C486.61,644.91,464.86,632.92,446.61,617z M547.04,655.21c-16.96-3.79-32.95-19.39-45.83-44.87c-3.4-6.76-6.44-13.92-9.2-21.58
				c17.32-7.16,35.92-11.38,55.03-12.27V655.21z M547.04,560.22c-20.82,0.86-41.04,5.33-60,13.02c-6.12-22.08-9.7-46.73-10.27-72.49
				h70.27V560.22z M563.32,655.21V576.5c19.11,0.97,37.71,5.12,55.03,12.27c-2.75,7.66-5.8,14.81-9.2,21.58
				C596.28,635.82,580.28,651.42,563.32,655.21z M599.82,651.56c8.84-8.73,16.82-20.22,23.87-34.13c3.47-6.8,6.58-14.13,9.41-21.75
				c10.88,5.83,21.18,12.95,30.66,21.25C645.51,632.92,623.76,644.91,599.82,651.56z"/>
		</g>
		<g>
			<g>
				<polygon class="st1" points="157.74,247.46 324.97,65.75 574.39,41.28 398.02,213.37 				"/>
				<path class="st1" d="M287.41,298.56l-28.96-58.53l145-20.1l102.62-102.43l28.74,58.09c-64.86,33.73-104.15,101.01-104.15,101.01
					C341.58,267.39,287.41,298.56,287.41,298.56z"/>
				<path class="st1" d="M228.27,293.4l17.38,35.11l-13.06,6.46l-17.38-35.11c-0.79-1.6-0.35-3.54,0.93-5.12
					c-2.13-0.08-3.98-1.02-4.81-2.72c-0.98-1.99-0.31-4.44,1.47-6.33l-0.05-0.05l-18.34-37.06l6.39-1.43l17.56,35.48l-0.08,0.26
					c2.66-0.33,5.1,0.62,6.1,2.66c0.84,1.7,0.47,3.74-0.76,5.48C225.67,290.97,227.48,291.8,228.27,293.4z"/>
			</g>
		</g>
	</g>
	<g>
		<path class="st2" d="M164.45,930.22c-3.19-5.85-7.58-10.31-13.17-13.37c-5.59-3.06-12.11-4.59-19.56-4.59
			c-8.25,0-15.57,1.87-21.95,5.59c-6.39,3.72-11.38,9.05-14.97,15.96c-3.59,6.92-5.39,14.9-5.39,23.95c0,9.31,1.83,17.43,5.49,24.35
			c3.66,6.92,8.75,12.24,15.27,15.97c6.52,3.73,14.1,5.59,22.75,5.59c10.64,0,19.36-2.83,26.14-8.48
			c6.79-5.65,11.24-13.54,13.37-23.65h-47.9v-21.35h75.44v24.35c-1.86,9.71-5.86,18.69-11.97,26.94c-6.12,8.25-14,14.87-23.65,19.86
			c-9.65,4.99-20.46,7.48-32.43,7.48c-13.44,0-25.58-3.02-36.42-9.08c-10.85-6.05-19.36-14.47-25.55-25.24
			c-6.19-10.78-9.28-23.02-9.28-36.72s3.09-25.98,9.28-36.82c6.19-10.84,14.7-19.29,25.55-25.34c10.84-6.05,22.92-9.08,36.22-9.08
			c15.7,0,29.34,3.83,40.91,11.47c11.58,7.65,19.56,18.4,23.95,32.23H164.45z"/>
		<path class="st2" d="M248.66,879.92v147.68h-27.94V879.92H248.66z"/>
		<path class="st2" d="M296.56,1022.32c-8.52-4.72-15.2-11.41-20.06-20.06c-4.86-8.65-7.28-18.63-7.28-29.94
			c0-11.31,2.49-21.29,7.48-29.94c4.99-8.65,11.8-15.33,20.46-20.06c8.65-4.72,18.29-7.08,28.94-7.08c10.64,0,20.29,2.36,28.94,7.08
			c8.65,4.73,15.47,11.41,20.46,20.06c4.99,8.65,7.48,18.63,7.48,29.94c0,11.31-2.56,21.29-7.68,29.94
			c-5.12,8.65-12.04,15.33-20.76,20.06c-8.72,4.72-18.46,7.08-29.24,7.08C314.65,1029.4,305.08,1027.04,296.56,1022.32z
			 M339.57,1001.36c4.46-2.46,8.01-6.15,10.68-11.08c2.66-4.92,3.99-10.91,3.99-17.96c0-10.51-2.76-18.59-8.28-24.25
			c-5.52-5.65-12.27-8.48-20.26-8.48c-7.98,0-14.67,2.83-20.06,8.48c-5.39,5.66-8.08,13.74-8.08,24.25
			c0,10.51,2.63,18.59,7.88,24.25c5.25,5.66,11.87,8.48,19.86,8.48C330.35,1005.05,335.11,1003.83,339.57,1001.36z"/>
		<path class="st2" d="M446.34,920.24c6.32-3.32,13.54-4.99,21.65-4.99c9.45,0,17.99,2.33,25.64,6.98
			c7.65,4.66,13.7,11.27,18.16,19.86c4.46,8.58,6.69,18.53,6.69,29.84c0,11.31-2.23,21.32-6.69,30.04
			c-4.46,8.72-10.51,15.46-18.16,20.26c-7.65,4.79-16.2,7.18-25.64,7.18c-8.25,0-15.47-1.63-21.65-4.89
			c-6.19-3.26-11.14-7.48-14.87-12.67v15.77h-27.94V879.92h27.94v53.28C435.06,927.89,440.01,923.56,446.34,920.24z M485.85,954.66
			c-2.73-4.86-6.32-8.55-10.78-11.07c-4.46-2.53-9.28-3.79-14.47-3.79c-5.06,0-9.81,1.3-14.27,3.89c-4.46,2.6-8.05,6.36-10.78,11.27
			c-2.73,4.93-4.09,10.71-4.09,17.36s1.36,12.44,4.09,17.36c2.73,4.93,6.32,8.68,10.78,11.28c4.46,2.59,9.21,3.89,14.27,3.89
			c5.19,0,10.01-1.33,14.47-3.99c4.46-2.66,8.05-6.45,10.78-11.38c2.73-4.92,4.09-10.78,4.09-17.56
			C489.94,965.27,488.58,959.52,485.85,954.66z"/>
		<path class="st1" d="M635.83,930.22c-3.19-5.85-7.58-10.31-13.17-13.37c-5.59-3.06-12.11-4.59-19.56-4.59
			c-8.25,0-15.57,1.87-21.95,5.59c-6.39,3.72-11.38,9.05-14.97,15.96c-3.59,6.92-5.39,14.9-5.39,23.95c0,9.31,1.83,17.43,5.49,24.35
			c3.66,6.92,8.75,12.24,15.27,15.97c6.52,3.73,14.1,5.59,22.75,5.59c10.64,0,19.36-2.83,26.14-8.48
			c6.79-5.65,11.24-13.54,13.37-23.65h-47.9v-21.35h75.44v24.35c-1.86,9.71-5.86,18.69-11.97,26.94c-6.12,8.25-14,14.87-23.65,19.86
			c-9.65,4.99-20.46,7.48-32.43,7.48c-13.44,0-25.58-3.02-36.42-9.08c-10.85-6.05-19.36-14.47-25.55-25.24
			c-6.19-10.78-9.28-23.02-9.28-36.72s3.09-25.98,9.28-36.82c6.19-10.84,14.7-19.29,25.55-25.34c10.84-6.05,22.92-9.08,36.22-9.08
			c15.7,0,29.34,3.83,40.91,11.47c11.58,7.65,19.56,18.4,23.95,32.23H635.83z"/>
		<path class="st1" d="M734.11,920.43c5.79-3.32,12.41-4.99,19.86-4.99v29.34h-7.38c-8.78,0-15.4,2.06-19.86,6.19
			c-4.46,4.13-6.69,11.31-6.69,21.55v55.08H692.1V917.04h27.94v17.16C723.63,928.35,728.32,923.76,734.11,920.43z"/>
		<path class="st1" d="M772.23,942.19c4.46-8.65,10.51-15.3,18.16-19.96c7.65-4.66,16.2-6.98,25.65-6.98
			c8.25,0,15.47,1.66,21.65,4.99c6.19,3.33,11.14,7.52,14.87,12.57v-15.76h28.14v110.56h-28.14v-16.17
			c-3.59,5.19-8.55,9.48-14.87,12.87c-6.32,3.39-13.61,5.09-21.85,5.09c-9.31,0-17.8-2.4-25.45-7.18
			c-7.65-4.79-13.71-11.54-18.16-20.26c-4.46-8.72-6.69-18.73-6.69-30.04C765.54,960.75,767.77,950.84,772.23,942.19z
			 M848.56,954.86c-2.66-4.86-6.26-8.58-10.78-11.17c-4.53-2.6-9.38-3.89-14.57-3.89c-5.19,0-9.98,1.27-14.37,3.79
			c-4.39,2.53-7.95,6.22-10.68,11.07c-2.73,4.86-4.09,10.61-4.09,17.26c0,6.66,1.36,12.47,4.09,17.46
			c2.73,4.99,6.32,8.82,10.78,11.48c4.46,2.66,9.21,3.99,14.27,3.99c5.19,0,10.04-1.3,14.57-3.89c4.52-2.6,8.11-6.32,10.78-11.18
			c2.66-4.86,3.99-10.68,3.99-17.46S851.22,959.72,848.56,954.86z"/>
		<path class="st1" d="M907.53,942.19c4.46-8.65,10.54-15.3,18.26-19.96c7.72-4.66,16.3-6.98,25.75-6.98
			c7.18,0,14.03,1.56,20.56,4.69c6.52,3.13,11.7,7.28,15.57,12.48v-52.49H1016v147.68h-28.34v-16.37
			c-3.46,5.46-8.32,9.85-14.57,13.17c-6.26,3.32-13.51,4.99-21.75,4.99c-9.31,0-17.83-2.4-25.55-7.18
			c-7.72-4.79-13.81-11.54-18.26-20.26c-4.46-8.72-6.69-18.73-6.69-30.04C900.85,960.75,903.07,950.84,907.53,942.19z
			 M983.87,954.86c-2.66-4.86-6.26-8.58-10.78-11.17c-4.53-2.6-9.38-3.89-14.57-3.89c-5.19,0-9.98,1.27-14.37,3.79
			c-4.39,2.53-7.95,6.22-10.68,11.07c-2.73,4.86-4.09,10.61-4.09,17.26c0,6.66,1.36,12.47,4.09,17.46
			c2.73,4.99,6.32,8.82,10.78,11.48c4.46,2.66,9.21,3.99,14.27,3.99c5.19,0,10.04-1.3,14.57-3.89c4.52-2.6,8.11-6.32,10.78-11.18
			c2.66-4.86,3.99-10.68,3.99-17.46S986.53,959.72,983.87,954.86z"/>
	</g>
</g>
</svg>
